<svg xmlns="http://www.w3.org/2000/svg" width="24" height="24" viewBox="0 0 24 24"><defs><style>.a{fill:#fff;}.a,.b{opacity:0;}.b{fill:#f8dddd;}.c{fill:#6489fa;}.d{fill:#f3756a;}.e{fill:#f6a16a;}.f{fill:none;}.g,.h{stroke:none;}.h{fill:#6186fe;}</style></defs><rect class="a" width="24" height="24"/><rect class="b" width="20" height="20" transform="translate(2 2)"/><g transform="translate(10161 2249)"><rect class="c" width="2" height="2" transform="translate(-10150 -2232)"/><rect class="c" width="2" height="2" transform="translate(-10155 -2231)"/><rect class="d" width="2" height="2" transform="translate(-10151 -2239)"/><rect class="e" width="2" height="2" transform="translate(-10148 -2238)"/><rect class="e" width="2" height="2" transform="translate(-10146 -2234)"/><rect class="e" width="2" height="2" transform="translate(-10149 -2235)"/><rect class="d" width="2" height="2" transform="translate(-10153 -2235)"/><rect class="c" width="2" height="2" transform="translate(-10146 -2231)"/></g><g class="f" transform="translate(2 2)"><path class="g" d="M10,0,20,20H0Z"/><path class="h" d="M 9.999999046325684 2.23607063293457 L 1.618034362792969 19 L 18.3819637298584 19 L 9.999999046325684 2.23607063293457 M 9.999999046325684 0 L 20 20 L -1.9073486328125e-06 20 L 9.999999046325684 0 Z"/></g></svg>